# xmcd
#
# Track frame offsets: 
#        150
#        24385
#        48817
#        68350
#        85482
#        102372
#        128800
#        154565
#
# Disc length: 2314 seconds
#
# Revision: 4
# Processed by: cddbd v1.5.2PL0 Copyright (c) Steve Scherf et al.
# Submitted via: ExactAudioCopy v1.0b3
#
DISCID=56090808
DTITLE=Chill - Cold Fresh Groove
DYEAR=1989
DGENRE=Soul
TTITLE0=Chill
TTITLE1=Cold Fresh Groove
TTITLE2=Body Reaction
TTITLE3=Simple Love
TTITLE4=16
TTITLE5=Hangin' On
TTITLE6=Waiting 4 Love
TTITLE7=Exotic Dance
EXTD=MillenniumMusicProjectFormat
EXTT0=
EXTT1=
EXTT2=
EXTT3=
EXTT4=
EXTT5=
EXTT6=
EXTT7=
PLAYORDER=
